<svg xmlns="http://www.w3.org/2000/svg" viewBox="0 0 83.285 90.19"><defs><style>.a{fill:#005d39;}</style></defs><g transform="translate(-4.8)"><path class="a" d="M69.024,27.409H50.7A.7.7,0,1,1,50.7,26h18.32a.7.7,0,1,1,0,1.409Z" transform="translate(-13.352 -7.68)"/><path class="a" d="M69.024,33.409H50.7A.7.7,0,1,1,50.7,32h18.32a.7.7,0,1,1,0,1.409Z" transform="translate(-13.352 -9.453)"/><path class="a" d="M69.024,38.409H50.7A.7.7,0,1,1,50.7,37h18.32a.7.7,0,1,1,0,1.409Z" transform="translate(-13.352 -10.93)"/><path class="a" d="M69.024,21.409H50.7A.7.7,0,1,1,50.7,20h18.32a.7.7,0,1,1,0,1.409Z" transform="translate(-13.352 -5.908)"/><path class="a" d="M69.024,15.409H50.7A.7.7,0,1,1,50.7,14h18.32a.7.7,0,1,1,0,1.409Z" transform="translate(-13.352 -4.136)"/><path class="a" d="M64.022,9.409H50.7A.7.7,0,1,1,50.7,8H64.022a.666.666,0,0,1,.7.7A.706.706,0,0,1,64.022,9.409Z" transform="translate(-13.352 -2.363)"/><path class="a" d="M73,32.412V6.976L66.027,0H44.748A2.8,2.8,0,0,0,42,2.748V32.412h2.818V2.818H64.547V5.566a2.827,2.827,0,0,0,2.818,2.818h2.818V32.412" transform="translate(-10.989)"/><path class="a" d="M76.151,45.523c-.211-.564-.282-.846-.493-1.409A3.252,3.252,0,0,0,72.839,42h-.846v1.409h1.268a1.044,1.044,0,0,1,.916.7c.211.564.282.846.493,1.409a.482.482,0,0,1-.493.7H35.918a.482.482,0,0,1-.493-.7c.211-.564.282-.846.493-1.409a1.044,1.044,0,0,1,.916-.7H38.1V42h-.846a3.336,3.336,0,0,0-2.818,2.114c-.211.564-.282.846-.493,1.409a1.446,1.446,0,0,0,1.409,2.114H74.53C75.94,47.637,76.574,46.721,76.151,45.523Z" transform="translate(-8.571 -12.407)"/><path class="a" d="M88.014,49.615h-.07l-8.6-15.783A3.836,3.836,0,0,0,76.247,32H64.833v2.818H76.6l8.1,14.8H8.182l8.1-14.8H28.052V32H16.708a3.908,3.908,0,0,0-3.1,1.832L4.941,49.615H4.87a11.119,11.119,0,0,0-.07,2.114v45.8a2.076,2.076,0,0,0,2.114,2.114H85.971a2.076,2.076,0,0,0,2.114-2.114v-45.8C88.085,50.531,88.014,49.615,88.014,49.615ZM85.266,96.824H7.548V52.434H85.266Z" transform="translate(0 -9.453)"/></g></svg>