<svg xmlns="http://www.w3.org/2000/svg" viewBox="0 0 90 90"><defs><style>.a{fill:#fff;}</style></defs><g transform="translate(-1000 306)"><path class="a" d="M52.442,49.558A2.045,2.045,0,0,1,51,53.045,1.761,1.761,0,0,1,50.6,53a1.7,1.7,0,0,1-.389-.112,1.671,1.671,0,0,1-.348-.194,1.457,1.457,0,0,1-.307-.256,1.922,1.922,0,0,1-.45-.655A2.077,2.077,0,0,1,48.955,51a2.011,2.011,0,0,1,.6-1.442A2.1,2.1,0,0,1,52.442,49.558ZM51,6a2.051,2.051,0,0,0-2.045,2.045V40.773a2.045,2.045,0,1,0,4.091,0V8.045A2.051,2.051,0,0,0,51,6Zm0,53.182a2.051,2.051,0,0,0-2.045,2.045V93.955a2.045,2.045,0,1,0,4.091,0V61.227A2.051,2.051,0,0,0,51,59.182ZM93.955,48.955H61.227a2.045,2.045,0,1,0,0,4.091H93.955a2.045,2.045,0,1,0,0-4.091Zm-53.182,0H8.045a2.045,2.045,0,1,0,0,4.091H40.773a2.045,2.045,0,1,0,0-4.091Z" transform="translate(994 -312)"/></g></svg>