<svg xmlns="http://www.w3.org/2000/svg" viewBox="0 0 90 90"><defs><style>.a{fill:#fff;}</style></defs><g transform="translate(-0.289 -14.011)"><g transform="translate(0.289 14.011)"><path class="a" d="M33.136,47.788a2.268,2.268,0,0,1,.233-3.348,2.921,2.921,0,0,1,3.72.209L48.25,56.367l27.671-22.7a2.8,2.8,0,0,1,3.72.1,2.185,2.185,0,0,1-.233,3.348L49.761,61.6a2.806,2.806,0,0,1-3.72-.314ZM55.458,5.209l42.32,18.936a2.391,2.391,0,0,1,1.511,2.3C98.126,43.394,93.243,57.2,85.686,68.4S67.782,88.17,55.574,94.656a2.931,2.931,0,0,1-2.79,0C40.693,88.066,30.462,79.487,22.9,68.4c-7.557-11.194-12.44-25-13.6-41.952a2.3,2.3,0,0,1,1.511-2.3L53.133,5.209a3.544,3.544,0,0,1,2.325,0ZM93.941,27.7,54.3,10.021,14.65,27.7c1.279,15.483,5.813,28.037,12.673,38.185C34.182,75.93,43.367,83.776,54.3,89.844c10.929-6.068,20.113-13.809,26.973-23.957S92.662,43.185,93.941,27.7Z" transform="translate(-9.289 -5.011)"/></g></g></svg>