<svg xmlns="http://www.w3.org/2000/svg" viewBox="0 0 90 90"><defs><style>.a{fill:none;}.b{fill:#fff;}</style></defs><rect class="a" width="90" height="90"/><g transform="translate(11.324 11.324)"><path class="b" d="M45.778,27.974a3.37,3.37,0,1,1,3.368,3.247A3.319,3.319,0,0,1,45.778,27.974ZM22.205,24.728H39.043V18.234H22.205Zm47.146-4.87v22.63l-9.5,3.052L54.2,63.689H35.676V57.2H28.941v6.494H10.419S2,36.221,2,26.351,10.284,8.494,20.522,8.494H37.359A17.036,17.036,0,0,1,50.83,2a4.957,4.957,0,0,1,5.051,4.87,4.409,4.409,0,0,1-.4,1.883A15.26,15.26,0,0,0,54.4,12.487l7.644,7.37Zm-6.735,6.494H59.249L47.462,14.987a22.632,22.632,0,0,1,.876-6.2,10.026,10.026,0,0,0-7.038,6.2H20.522A11.594,11.594,0,0,0,8.735,26.351c0,6.1,4.108,21.591,6.769,30.845h6.7V50.7H42.411V57.2H49.18L54.4,40.475l8.217-2.662Z" transform="translate(-2 -2)"/></g></svg>