<svg xmlns="http://www.w3.org/2000/svg" xmlns:xlink="http://www.w3.org/1999/xlink" viewBox="0 0 50 50"><defs><style>.a{fill:url(#a);}.b{fill:url(#b);}.c{fill:url(#c);}</style><linearGradient id="a" x1="0.5" y1="0.008" x2="0.5" y2="0.998" gradientUnits="objectBoundingBox"><stop offset="0" stop-color="#e09b3d"/><stop offset="0.3" stop-color="#c74c4d"/><stop offset="0.6" stop-color="#c21975"/><stop offset="1" stop-color="#7024c4"/></linearGradient><linearGradient id="b" y1="-0.451" y2="1.462" xlink:href="#a"/><linearGradient id="c" y1="-1.396" y2="6.586" xlink:href="#a"/></defs><path class="a" d="M35.1,0H14.9A14.912,14.912,0,0,0,0,14.9V35.1A14.912,14.912,0,0,0,14.9,50H35.1A14.912,14.912,0,0,0,50,35.1V14.9A14.912,14.912,0,0,0,35.1,0ZM44.97,35.1A9.865,9.865,0,0,1,35.1,44.97H14.9A9.865,9.865,0,0,1,5.03,35.1V14.9A9.865,9.865,0,0,1,14.9,5.03H35.1A9.865,9.865,0,0,1,44.97,14.9V35.1Z"/><path class="b" d="M144,133a11,11,0,1,0,11,11A11.013,11.013,0,0,0,144,133Zm0,17.723A6.722,6.722,0,1,1,150.723,144,6.722,6.722,0,0,1,144,150.723Z" transform="translate(-119.001 -119.001)"/><circle class="c" cx="3.595" cy="3.595" r="3.595" transform="translate(34.069 8.861)"/></svg>