<svg xmlns="http://www.w3.org/2000/svg" viewBox="0 0 75.494 90"><defs><style>.a{fill:#fff;}</style></defs><g transform="translate(-168.1 -172.5)"><g transform="translate(168.1 172.5)"><path class="a" d="M84.345,14.992H77.32C76.205,7.989,69.18,2.5,60.593,2.5S44.982,7.989,43.755,14.992H36.841c-4.014,0-7.36,2.839-7.36,6.246v5.11H23.46c-4.126,0-7.36,2.839-7.36,6.246V86.254c0,3.407,3.345,6.246,7.36,6.246H70.852c4.014,0,7.36-2.839,7.36-6.246v-5.11h6.022c4.014,0,7.36-2.839,7.36-6.246V21.238C91.594,17.737,88.36,14.992,84.345,14.992ZM60.593,6.475c6.8,0,12.378,4.732,12.378,10.5s-5.576,10.5-12.378,10.5-12.378-4.732-12.378-10.5S53.791,6.475,60.593,6.475ZM73.64,86.159a2.534,2.534,0,0,1-2.676,2.271H23.571a2.573,2.573,0,0,1-2.788-2.271V32.5a2.573,2.573,0,0,1,2.788-2.271h6.022V74.9c0,3.407,3.345,6.246,7.36,6.246h36.8v5.016ZM87.022,74.9a2.534,2.534,0,0,1-2.676,2.271h-47.5A2.534,2.534,0,0,1,34.165,74.9V21.238a2.608,2.608,0,0,1,2.676-2.366h6.914c1.115,7,8.252,12.492,16.838,12.492s15.723-5.489,16.838-12.492h6.914a2.541,2.541,0,0,1,2.676,2.366Z" transform="translate(-16.1 -2.5)"/><path class="a" d="M69.7,58.8H42.2a2.1,2.1,0,0,0,0,4.2H69.7a2.112,2.112,0,0,0,2.1-2.1A2.051,2.051,0,0,0,69.7,58.8Z" transform="translate(-10.904 -5.659)"/><path class="a" d="M69.7,69H42.2a2.1,2.1,0,0,0,0,4.2H69.7a2.112,2.112,0,0,0,2.1-2.1A2.051,2.051,0,0,0,69.7,69Z" transform="translate(-10.904 -6.231)"/><path class="a" d="M69.7,48.5H42.2a2.1,2.1,0,1,0,0,4.2H69.7a2.1,2.1,0,1,0,0-4.2Z" transform="translate(-10.904 -5.081)"/><path class="a" d="M69.7,38.3H42.2a2.1,2.1,0,0,0,0,4.2H69.7a2.112,2.112,0,0,0,2.1-2.1A2.051,2.051,0,0,0,69.7,38.3Z" transform="translate(-10.904 -4.509)"/><path class="a" d="M52.9,22.8a2.127,2.127,0,0,0,1.5.7,1.8,1.8,0,0,0,1.5-.7l5.7-6.1a2.052,2.052,0,1,0-3-2.8l-4.2,4.5-1.5-1.6a2.052,2.052,0,1,0-3,2.8Z" transform="translate(-11.38 -2.5)"/></g></g></svg>