<svg xmlns="http://www.w3.org/2000/svg" viewBox="0 0 90 90"><defs><style>.a{fill:#58b801;}</style></defs><g transform="translate(-94.447 -4)"><g transform="translate(94.447 4)"><path class="a" d="M88.5,4h-75C9.36,4,6,7.024,6,10.75v76.5C6,90.976,9.36,94,13.5,94h75c4.14,0,7.5-3.024,7.5-6.75V10.75C96,7.024,92.64,4,88.5,4ZM91,87.25a2.388,2.388,0,0,1-2.5,2.25h-75A2.388,2.388,0,0,1,11,87.25V10.75A2.388,2.388,0,0,1,13.5,8.5h75A2.388,2.388,0,0,1,91,10.75ZM84.667,35.768a2.734,2.734,0,0,0-2.562.106l-19.984,11.9A2.194,2.194,0,0,0,61,49.711a2.224,2.224,0,0,0,1.231,1.88l20,10.6a2.742,2.742,0,0,0,2.509.014A2.221,2.221,0,0,0,86,60.25l-.016-22.5a2.227,2.227,0,0,0-1.317-1.982ZM68.217,49.54l12.77-7.605L81,56.313ZM39.88,47.775,19.9,35.872a2.739,2.739,0,0,0-2.564-.105,2.229,2.229,0,0,0-1.316,1.983L16,60.25A2.221,2.221,0,0,0,17.259,62.2a2.742,2.742,0,0,0,2.51-.014l20-10.6A2.224,2.224,0,0,0,41,49.713a2.194,2.194,0,0,0-1.12-1.935ZM21,56.313l.011-14.378,12.77,7.605ZM53.5,22V76a2.514,2.514,0,0,1-5,0V22a2.514,2.514,0,0,1,5,0Z" transform="translate(-6 -4)"/></g></g></svg>