<svg xmlns="http://www.w3.org/2000/svg" viewBox="0 0 80.643 90.201"><defs><style>.a{fill:#005d39;}</style></defs><g transform="translate(-3.32)"><path class="a" d="M62.569,90.2H10.433A7.126,7.126,0,0,1,3.32,83.088V18.465a1.289,1.289,0,0,1,.387-.9L20.948.374A1.289,1.289,0,0,1,21.8,0H62.569a7.113,7.113,0,0,1,7.113,7.113V32.55a1.289,1.289,0,0,1-2.577,0V7.113a4.549,4.549,0,0,0-4.536-4.536H22.327L5.9,19.007V83.088a4.549,4.549,0,0,0,4.536,4.536H62.569A4.549,4.549,0,0,0,67.1,83.088V51.079a1.289,1.289,0,0,1,2.577,0V83.088A7.113,7.113,0,0,1,62.569,90.2Z"/><path class="a" d="M15.961,19.754H4.609a1.289,1.289,0,1,1,0-2.577H15.961a4.549,4.549,0,0,0,4.549-4.536V1.289a1.289,1.289,0,1,1,2.577,0V12.641A7.126,7.126,0,0,1,15.961,19.754Z"/><path class="a" d="M56.767,26.657H11.989a1.289,1.289,0,1,1,0-2.577H56.767a1.289,1.289,0,0,1,0,2.577Z" transform="translate(1.792 6.6)"/><path class="a" d="M55.272,37.717H11.989a1.289,1.289,0,0,1,0-2.577H55.272a1.289,1.289,0,1,1,0,2.577Z" transform="translate(1.805 9.632)"/><path class="a" d="M44.087,48.767h-32.1a1.289,1.289,0,0,1,0-2.577h32.1a1.289,1.289,0,1,1,0,2.577Z" transform="translate(1.876 12.661)"/><path class="a" d="M56.767,59.827H11.989a1.289,1.289,0,0,1,0-2.577H56.767a1.289,1.289,0,0,1,0,2.577Z" transform="translate(1.792 15.693)"/><path class="a" d="M33.872,71.251a1.289,1.289,0,0,1-1.289-1.482l1.83-11.52a1.289,1.289,0,0,1,.258-.593L64.05,20.21a7.01,7.01,0,0,1,11.03,8.646L45.65,66.3a1.289,1.289,0,0,1-.528.4L34.413,71.148A1.289,1.289,0,0,1,33.872,71.251Zm2.99-12.267L35.483,67.9l8.337-3.415L72.993,27.272A4.427,4.427,0,1,0,66.035,21.8Zm7.732,6.52Z" transform="translate(7.497 4.637)"/><path class="a" d="M44.257,57.96a1.289,1.289,0,0,1-.8-.271l-9.02-7.061a1.289,1.289,0,1,1,1.585-2.023l9.02,7.061a1.289,1.289,0,0,1-.8,2.294Z" transform="translate(8.26 13.185)"/></g></svg>