<svg xmlns="http://www.w3.org/2000/svg" viewBox="0 0 73.637 90"><defs><style>.a{fill:#008753;}</style></defs><g transform="translate(-14 -6)"><g transform="translate(0 -952.362)"><path class="a" d="M41.614,6a8.136,8.136,0,0,0-7.99,7.159H28.318A2.046,2.046,0,0,0,26.273,15.2V17.25H16.045q-.1,0-.192,0A2.046,2.046,0,0,0,14,19.3V63.273a2.046,2.046,0,1,0,4.091,0V32.591H65.136v22.6a20.3,20.3,0,0,0-5.209,1.246,2.046,2.046,0,0,0-1.95-1.342H38.545q-.1,0-.192,0a2.048,2.048,0,1,0,.192,4.091h16.4a20.685,20.685,0,0,0-5.977,7.159H38.545q-.1,0-.192,0a2.048,2.048,0,1,0,.192,4.091H47.4a19.978,19.978,0,0,0,.288,11.25h-29.6V71.455a2.046,2.046,0,1,0-4.091,0V83.727a2.046,2.046,0,0,0,2.045,2.045H49.508A20.441,20.441,0,1,0,69.227,55.187V19.3a2.046,2.046,0,0,0-2.045-2.045H56.955V15.2a2.046,2.046,0,0,0-2.045-2.045H49.6A8.136,8.136,0,0,0,41.614,6Zm0,4.091A4.038,4.038,0,0,1,45.7,14.182V15.2A2.046,2.046,0,0,0,47.75,17.25h5.114v4.091h-22.5V17.25h5.114A2.046,2.046,0,0,0,37.523,15.2V14.182A4.038,4.038,0,0,1,41.614,10.091ZM18.091,21.341h8.182v2.045a2.046,2.046,0,0,0,2.045,2.045H54.909a2.046,2.046,0,0,0,2.045-2.045V21.341h8.182V28.5H18.091ZM32.153,39.718a2.046,2.046,0,0,0-1.182.607L27.3,44l-.607-.607A2.045,2.045,0,1,0,23.812,46.3l2.046,2.045a2.046,2.046,0,0,0,2.876,0l5.114-5.114a2.046,2.046,0,0,0-1.694-3.516Zm6.2,4.123a2.048,2.048,0,1,0,.192,4.091H57.977a2.046,2.046,0,1,0,0-4.091H38.545q-.1,0-.192,0Zm-6.2,7.127a2.046,2.046,0,0,0-1.182.607L27.3,55.251l-.607-.607a2.045,2.045,0,1,0-2.877,2.909L25.857,59.6a2.046,2.046,0,0,0,2.876,0l5.114-5.114a2.046,2.046,0,0,0-1.694-3.516Zm35.028,8.214A16.364,16.364,0,1,1,50.818,75.545,16.333,16.333,0,0,1,67.182,59.182ZM32.153,62.218a2.046,2.046,0,0,0-1.182.607L27.3,66.5l-.607-.607A2.045,2.045,0,1,0,23.812,68.8l2.046,2.045a2.046,2.046,0,0,0,2.876,0l5.114-5.114a2.046,2.046,0,0,0-1.694-3.516Zm41.932,5.114a2.046,2.046,0,0,0-1.182.607l-8.789,8.789-2.653-2.653a2.045,2.045,0,1,0-2.877,2.909l4.091,4.091a2.046,2.046,0,0,0,2.876,0L75.779,70.847a2.046,2.046,0,0,0-1.694-3.516Z" transform="translate(0 952.362)"/></g></g></svg>