<svg xmlns="http://www.w3.org/2000/svg" viewBox="0 0 90 90"><defs><style>.a{fill:none;}.b{fill:#fff;}</style></defs><rect class="a" width="90" height="90"/><path class="b" d="M72.606,12.388,32.325,49.693,17.357,35.843l4.978-4.606,9.991,9.245,35.3-32.667ZM37.3,60.8C21.734,60.8,9.061,49.073,9.061,34.667S21.734,8.533,37.3,8.533a29.725,29.725,0,0,1,15.11,4.083L57.532,7.88A37.377,37.377,0,0,0,37.3,2C17.816,2,2,16.635,2,34.667S17.816,67.333,37.3,67.333a37.188,37.188,0,0,0,16.875-3.985l-5.3-4.9A29.52,29.52,0,0,1,37.3,60.8ZM62.015,44.467H51.424V51H62.015v9.8h7.061V51H79.667V44.467H69.076v-9.8H62.015Z" transform="translate(10.333 10.333)"/></svg>