<svg xmlns="http://www.w3.org/2000/svg" viewBox="0 0 136.615 90"><defs><style>.a{fill:#58b801;}</style></defs><g transform="translate(-20.951 -20.355)"><path class="a" d="M141.349,58.384,123.254,27.4a1.943,1.943,0,0,0-2.4-.827,31.974,31.974,0,0,1-10.31,1.981c-2.039,0-4.567-1.22-7.494-2.635-4.013-1.937-9.006-4.349-14.809-4.349A26.466,26.466,0,0,0,74.6,25.319a26.489,26.489,0,0,0-13.223-4.888c-5.786-.49-10.963,1.492-15.123,3.084-3.036,1.163-5.653,2.163-7.691,1.993a32.263,32.263,0,0,1-10.108-2.843A1.948,1.948,0,0,0,26,23.289L5.354,52.64A1.948,1.948,0,0,0,5.7,55.258L27.724,73.51l-.134.134A8.479,8.479,0,0,0,35.2,87.97c0,.026,0,.049,0,.073A8.469,8.469,0,0,0,45.924,96.22a8.461,8.461,0,0,0,8.461,8.092,8.6,8.6,0,0,0,1.74-.181,16.052,16.052,0,0,0,12.96,6.224,19.693,19.693,0,0,0,7.242-1.386,14.588,14.588,0,0,0,4.557.73,13.092,13.092,0,0,0,8.757-3.128,8.426,8.426,0,0,0,3.282.66h0a8.472,8.472,0,0,0,8.349-7.02,8.466,8.466,0,0,0,12.752-6.659,8.5,8.5,0,0,0,2.612.413h0a8.484,8.484,0,0,0,6-14.483L119.157,76l21.623-15.04A1.944,1.944,0,0,0,141.349,58.384ZM36.834,82.889A4.591,4.591,0,0,1,30.342,76.4L34.234,72.5A4.591,4.591,0,0,1,40.726,79Zm11.533,6.96L46.926,91.29A4.592,4.592,0,0,1,40.432,84.8l8.76-8.758a4.59,4.59,0,0,1,6.5,6.485l-7.306,7.306A.2.2,0,0,1,48.368,89.849Zm6.016,10.571a4.591,4.591,0,0,1-3.251-7.831l7.3-7.306.014-.015L59.9,83.821a4.592,4.592,0,0,1,6.494,6.494l-8.76,8.76A4.569,4.569,0,0,1,54.383,100.42Zm15.422,3a6.106,6.106,0,0,0,1.9,2.8,12.54,12.54,0,0,1-11.948-3.828q.326-.266.625-.568l8.758-8.76c.129-.129.246-.267.366-.4,3.21,2.5,2.511,3.734,1.431,5.633C70.162,99.663,69.2,101.361,69.805,103.42Zm50.078-21.184a4.592,4.592,0,0,1-3.245,7.839h0a4.566,4.566,0,0,1-3.247-1.345l-20.3-20.307a1.946,1.946,0,0,0-2.752,2.752L108.81,89.652a.033.033,0,0,1,.009.011,4.591,4.591,0,1,1-6.492,6.494l-3.4-3.4s0,0-.008-.008,0,0,0,0l-12.1-12.1A1.946,1.946,0,0,0,84.066,83.4l12.1,12.1a4.591,4.591,0,0,1-6.5,6.489l-7.79-7.787a1.946,1.946,0,0,0-2.752,2.752l7.259,7.257a9.78,9.78,0,0,1-5.512,1.592,10.526,10.526,0,0,1-3.851-.707c-2.846-1.492-3.391-2.442-3.493-2.782-.131-.44.209-1.087.783-2.1,1.711-3.012,2.984-6.573-2.972-11.029A8.469,8.469,0,0,0,60.9,78.891a8.476,8.476,0,0,0-14.464-5.6l-.668.668a8.481,8.481,0,0,0-14.29-4.2l-1.015,1.015a1.973,1.973,0,0,0-.209-.213L9.574,53.407,28.263,26.835a34.958,34.958,0,0,0,9.974,2.55c2.919.25,6.072-.958,9.411-2.236,3.988-1.526,8.508-3.254,13.4-2.842a22.518,22.518,0,0,1,10.1,3.385,39.628,39.628,0,0,0-8.707,9.864c-.976,1.55-9.47,15.337-7.244,22.274a5.336,5.336,0,0,0,3.115,3.435,8.948,8.948,0,0,0,3.393.688c5.345,0,9.407-4.945,13.337-9.728,2.916-3.549,5.921-7.209,8.874-7.962l30.844,30.844,0,0Zm-3.525-9.029L105.275,62.121l0,0L85.968,42.814a1.939,1.939,0,0,0-1.375-.571c-.042,0-.088,0-.129,0-4.892.326-8.725,4.992-12.433,9.507-3.355,4.083-6.825,8.308-10.328,8.308a5.019,5.019,0,0,1-1.922-.4,1.441,1.441,0,0,1-.879-1.02c-1.128-3.514,2.678-12.417,6.831-19.009C69.068,34.34,76.427,25.46,88.242,25.46c4.912,0,9.27,2.1,13.116,3.962,3.218,1.553,6.257,3.022,9.187,3.022a34.946,34.946,0,0,0,10.155-1.7L137.08,58.8Z" transform="translate(15.952 0)"/></g></svg>