<svg xmlns="http://www.w3.org/2000/svg" viewBox="0 0 49.064 90"><defs><style>.a{fill:#58b801;}</style></defs><g transform="translate(2.56 775)"><path class="a" d="M162.474,35.423a7.963,7.963,0,0,0-6.383-2.821h-.54V6.207a6.207,6.207,0,1,0-12.414,0V18.3a6.207,6.207,0,0,0-8.895,5.384,6.205,6.205,0,0,0-8.854,4.813,6.205,6.205,0,0,0-8.949,5.567v22.31c0,.452.072,11.174,6.363,18.673a7.144,7.144,0,0,1,1.673,4.577v8.613A1.758,1.758,0,0,0,126.235,90h27.559a1.758,1.758,0,0,0,1.758-1.758V79.585a4.169,4.169,0,0,1,.988-2.7c2.308-2.716,6.34-8.218,7.42-14.578C166.416,47.841,165.958,39.551,162.474,35.423ZM146.653,6.207a2.691,2.691,0,1,1,5.382,0V32.6h-5.382V6.207Zm-8.9,17.7a2.693,2.693,0,0,1,5.384,0v8.7h-1.883a4.1,4.1,0,0,0-3.5,2Zm0,22.324V39.978a8.221,8.221,0,0,0,5.384,4.883V47.5a2.693,2.693,0,1,1-5.384,0Zm-8.9-16.951a2.691,2.691,0,1,1,5.382,0V46.23a2.691,2.691,0,1,1-5.382,0Zm-8.9,4.79a2.693,2.693,0,0,1,5.384,0V43.98a2.693,2.693,0,0,1-5.384,0V34.068Zm40.537,27.65c-.939,5.53-4.558,10.448-6.632,12.888a7.7,7.7,0,0,0-1.825,4.976v6.9H127.992V79.629a10.659,10.659,0,0,0-2.489-6.836c-5.449-6.5-5.541-16.318-5.541-16.416V49.57a6.2,6.2,0,0,0,6.117-.42,6.2,6.2,0,0,0,9.316,1.942,6.2,6.2,0,0,0,11.25-3.6V45.628l5.331,1.139-.541,2.079a24.151,24.151,0,0,0-14.171,13.6,1.758,1.758,0,1,0,3.252,1.332,20.333,20.333,0,0,1,7.826-9.462,18.794,18.794,0,0,1,4.987-2.375,1.758,1.758,0,0,0,1.271-1.262l1.23-4.721c.009-.035.014-.069.021-.1a.4.4,0,0,1,.014-.053,1.758,1.758,0,0,0-1.359-2.092l-9.257-1.978h-.014l-.918-.2a4.784,4.784,0,0,1-3.67-4.729.65.65,0,0,1,.6-.689h14.841a4.464,4.464,0,0,1,3.691,1.573C160.772,38.858,163.773,42.411,160.493,61.72Z" transform="translate(-119 -775)"/></g></svg>