<svg xmlns="http://www.w3.org/2000/svg" viewBox="0 0 57.273 90"><defs><style>.a{fill:#fff;}</style></defs><path class="a" d="M228.273,482A12.287,12.287,0,0,1,216,469.727V404.273A12.287,12.287,0,0,1,228.273,392H261a12.287,12.287,0,0,1,12.273,12.273v65.455A12.287,12.287,0,0,1,261,482Zm-8.182-77.727v65.455a8.182,8.182,0,0,0,8.182,8.182H261a8.182,8.182,0,0,0,8.182-8.182V404.273A8.182,8.182,0,0,0,261,396.091H228.273A8.182,8.182,0,0,0,220.091,404.273Zm20.455,65.455a4.091,4.091,0,1,1,4.091,4.091A4.091,4.091,0,0,1,240.545,469.727ZM238.5,404.273a2.045,2.045,0,1,1,0-4.091h12.273a2.045,2.045,0,1,1,0,4.091Z" transform="translate(-216 -392)"/></svg>