<svg xmlns="http://www.w3.org/2000/svg" viewBox="0 0 71.591 90"><defs><style>.a{fill:#58b801;fill-rule:evenodd;}</style></defs><g transform="translate(61 -380)"><g transform="translate(-76 374)"><g transform="translate(15 6)"><path class="a" d="M32,25h6V75H32Zm2,0h2V75H34Z" transform="translate(0.795 2)"/><path class="a" d="M32,10h6V20H32Zm2,2v8h2V12Z" transform="translate(0.795)"/><path class="a" d="M30,5a5,5,0,1,1,5,5A5,5,0,0,1,30,5Zm2,0a3,3,0,1,0,3-3A3,3,0,0,0,32,5Z" transform="translate(0.795)"/><path class="a" d="M5,19H66.591v6H5Zm2.053,2v2H64.538V21Z" transform="translate(0 0.463)"/><path class="a" d="M11,54A11,11,0,0,1,0,43H22A11,11,0,0,1,11,54Zm0-2c4.418,0,9-2.582,9-7H2C2,49.418,6.582,52,11,52Z" transform="translate(0 1.117)"/><path class="a" d="M59,54A11,11,0,0,1,48,43H70A11,11,0,0,1,59,54Zm0-2c4.418,0,9-2.582,9-7H50C50,49.418,54.582,52,59,52Z" transform="translate(1.591 1.117)"/><path class="a" d="M11.192,26.361a.262.262,0,0,1,.494,0l9.5,16.337c.136.235.022.425-.247.425H1.933c-.273,0-.382-.193-.247-.425Zm.061,2.834L3.8,42c-.134.231-.026.424.246.424H18.952c.268,0,.383-.19.247-.424L11.747,29.194A.261.261,0,0,0,11.254,29.194Z" transform="translate(0 0.737)"/><path class="a" d="M59.192,26.361a.262.262,0,0,1,.494,0l9.5,16.337c.137.235.023.425-.247.425H49.933c-.273,0-.382-.193-.247-.425Zm.111,2.747-7.553,12.98c-.107.184-.021.338.2.338H67.052c.214,0,.3-.151.2-.338L59.7,29.108A.208.208,0,0,0,59.3,29.108Z" transform="translate(1.591 0.737)"/><path class="a" d="M10,75H61.591v6H10Zm2.064,2v2H59.527V77Z" transform="translate(0 2)"/><path class="a" d="M5,82H66.591v6H5Zm2.053,2v2H64.538V84Z" transform="translate(0 2)"/></g></g></g></svg>